<?xml version="1.0" encoding="UTF-8" standalone="no"?>
<!-- Created with Inkscape (http://www.inkscape.org/) -->

<svg
   width="210mm"
   height="297mm"
   viewBox="0 0 210 297"
   version="1.1"
   id="svg5"
   inkscape:version="1.1 (c68e22c387, 2021-05-23)"
   sodipodi:docname="AutoSignLogo.svg"
   xmlns:inkscape="http://www.inkscape.org/namespaces/inkscape"
   xmlns:sodipodi="http://sodipodi.sourceforge.net/DTD/sodipodi-0.dtd"
   xmlns="http://www.w3.org/2000/svg"
   xmlns:svg="http://www.w3.org/2000/svg">
  <sodipodi:namedview
     id="namedview7"
     pagecolor="#ffffff"
     bordercolor="#666666"
     borderopacity="1.0"
     inkscape:pageshadow="2"
     inkscape:pageopacity="0.0"
     inkscape:pagecheckerboard="0"
     inkscape:document-units="mm"
     showgrid="false"
     inkscape:snap-global="true"
     inkscape:snap-bbox="false"
     inkscape:object-paths="true"
     inkscape:zoom="0.1767767"
     inkscape:cx="1021.0622"
     inkscape:cy="-22.627417"
     inkscape:window-width="958"
     inkscape:window-height="1008"
     inkscape:window-x="-7"
     inkscape:window-y="0"
     inkscape:window-maximized="0"
     inkscape:current-layer="layer1" />
  <defs
     id="defs2">
    <inkscape:path-effect
       effect="skeletal"
       id="path-effect2063"
       is_visible="true"
       lpeversion="1"
       pattern="m 4.4313169,41.430083 c 0,-2.75566 2.2364779,-4.992138 4.9921381,-4.992138 2.75566,0 4.992138,2.236478 4.992138,4.992138 0,2.755661 -2.236478,4.992139 -4.992138,4.992139 -2.7556602,0 -4.9921381,-2.236478 -4.9921381,-4.992139 z"
       copytype="single_stretched"
       prop_scale="1"
       scale_y_rel="false"
       spacing="0"
       normal_offset="0"
       tang_offset="0"
       prop_units="false"
       vertical_pattern="false"
       hide_knot="false"
       fuse_tolerance="0" />
    <linearGradient
       id="linearGradient944"
       inkscape:swatch="solid">
      <stop
         style="stop-color:#6f36ff;stop-opacity:1;"
         offset="0"
         id="stop942" />
    </linearGradient>
    <linearGradient
       id="linearGradient916"
       inkscape:swatch="solid">
      <stop
         style="stop-color:#000000;stop-opacity:1;"
         offset="0"
         id="stop914" />
    </linearGradient>
  </defs>
  <g
     inkscape:label="Layer 1"
     inkscape:groupmode="layer"
     id="layer1">
    <path
       id="path1257"
       style="fill:none;fill-opacity:1;stroke:#6f36ff;stroke-width:3.47807;stroke-miterlimit:4;stroke-dasharray:none;stroke-opacity:1"
       d="M 53.710488,41.881889 A 30.033876,29.842577 0 0 0 23.676798,71.724495 30.033876,29.842577 0 0 0 26.69645,84.758516 L 25.015481,101.5671 32.277158,92.602302 A 30.033876,29.842577 0 0 0 53.710488,101.5671 30.033876,29.842577 0 0 0 83.744179,71.724495 30.033876,29.842577 0 0 0 53.710488,41.881889 Z" />
    <path
       id="path2516"
       style="fill:#6f36ff;fill-opacity:1;stroke:#6f36ff;stroke-width:0.315108px;stroke-linecap:butt;stroke-linejoin:miter;stroke-opacity:1"
       d="m 48.043902,71.280558 -0.744075,0.106472 -0.796999,0.903471 -0.850546,1.115803 -0.797001,1.700474 -0.797003,3.613892 -0.425273,3.560351 c 0,0 -0.425058,3.985762 -0.478197,5.633167 l 2.869201,2.922749 0.903474,0.637602 0.531745,0.265872 0.425273,-0.265872 0.212329,-0.9564 0.05294,-1.275204 0.05355,-1.913416 0.05294,-2.709805 0.265872,-1.488147 0.05294,-0.691146 0.318801,-0.1594 0.318801,0.212944 0.159397,0.637602 v 2.763347 l -0.05293,2.125747 -0.265873,2.178677 -0.371729,2.444547 0.05292,0.212329 1.115802,0.478816 1.116417,0.478202 1.009331,0.265254 1.169344,0.05355 h 1.275203 l 0.212943,-0.318801 -0.1594,-0.744075 -0.265872,-1.062873 -0.265873,-1.328744 -0.265872,-1.275204 -0.10586,-1.381675 -0.265872,-2.86982 -0.106471,-4.782623 -0.105861,-2.125745 -0.05355,-1.91342 -0.4782,-1.806949 -0.1594,-0.902857 -0.371729,-1.062874 -0.318801,-0.957017 z m 0.743458,3.401567 0.372344,0.10586 0.318798,0.478202 0.425273,0.903474 0.318801,1.381675 0.05293,1.381672 v 0.903475 l -0.265872,0.265872 -0.743457,0.21233 h -1.009946 l -0.531128,-0.265259 -0.319417,-0.691144 0.319417,-1.381676 0.318801,-1.222272 0.265256,-1.169347 z" />
    <path
       id="path3238-5"
       style="fill:#6f36ff;fill-opacity:1;stroke:#6f36ff;stroke-width:0.315108px;stroke-linecap:butt;stroke-linejoin:miter;stroke-opacity:1"
       d="m 58.904056,71.546474 -1.062876,0.05288 -1.488147,0.106471 -1.275814,0.744076 -0.398196,0.451742 -0.372344,0.624062 -0.278795,0.677609 -0.212329,0.770527 -0.120012,0.677608 -0.02648,0.677607 0.113854,1.238895 0.056,1.089941 0.112629,0.73238 0.188328,0.544674 0.243715,0.620371 0.319417,0.619751 0.526206,0.638831 0.63883,0.78901 0.751461,0.939773 2.010658,2.705502 0.958246,1.465379 0.30034,0.770527 0.113236,0.63883 0.01848,0.488674 v 0.356954 l -0.05661,0.300337 -0.112629,0.206785 -0.168633,0.131709 -0.169248,0.05598 -0.244331,0.03752 -0.18771,-0.05598 -0.20679,-0.169247 -0.263411,-0.300956 -0.882547,-1.277041 -0.131705,-0.0942 -0.131707,-0.03752 -0.206789,0.03752 -1.747247,0.582213 -0.187711,0.169259 -0.187713,0.225247 -0.150781,0.244336 -0.01848,0.206785 0.350189,0.76499 0.265874,0.451743 0.345265,0.425279 0.425271,0.451731 0.425272,0.345259 0.451739,0.372353 0.557593,0.292333 0.558207,0.212325 0.664068,0.132933 0.664678,0.053 0.849932,-0.132935 0.850542,-0.212336 0.797002,-0.318795 0.637602,-0.318809 0.717608,-0.584665 0.398195,-0.504668 0.345879,-0.61113 0.10585,-0.53175 0.132933,-0.69053 -0.07939,-0.770539 V 88.498888 L 64.164855,87.728349 63.872522,86.984274 63.500791,86.373133 63.021975,85.576132 61.375042,83.290991 60.869764,82.67985 60.3651,82.148111 59.91336,81.643443 58.425215,80.102366 57.628214,79.198893 57.043541,78.242492 56.73828,77.691055 l -0.0597,-0.531739 -0.0068,-0.385275 0.07939,-0.238788 0.206172,-0.39204 0.272643,-0.212336 0.291721,-0.106471 1.269047,-0.121241 0.346496,-0.01418 0.507128,0.01906 0.395114,0.05598 0.644373,0.193246 0.637598,0.185873 0.558212,0.185861 0.504663,0.239406 0.691145,0.26587 0.398192,0.212324 0.611136,0.292345 0.584674,0.318796 0.531745,0.292333 h 0.292337 l 0.265255,-0.08004 0.186481,-0.159397 0.265258,-0.318797 0.637603,-0.744074 0.372343,-0.424662 0.318798,-0.398804 0.425273,-0.504668 0.398195,-0.53174 -0.612986,-0.462819 -0.490509,-0.328026 -0.793924,-0.456053 -0.797002,-0.318795 -0.778538,-0.234488 -1.097337,-0.3785 -0.74346,-0.212324 -0.850542,-0.212944 -1.222275,-0.265868 -1.328747,-0.265262 z" />
    <path
       style="fill:#6f36ff;fill-opacity:1;stroke:#6f36ff;stroke-width:0.315108px;stroke-linecap:butt;stroke-linejoin:miter;stroke-opacity:1"
       d="m 71.708379,67.868532 -0.41358,0.393886 -0.315106,0.334802 -0.216638,0.3348 -0.196943,0.374192 -0.23633,0.472662 -0.157554,0.295413 -0.177249,0.315108 -0.354495,0.236331 -0.393884,0.354496 -0.315109,0.41358 -0.236331,0.354496 -0.137859,0.374191 -0.0197,0.393885 0.05908,0.551439 0.157555,0.512051 0.196943,0.354495 0.374189,0.157553 0.531746,-0.05908 0.334803,-0.09847 0.393884,-0.216636 0.452967,-0.275719 0.295414,-0.295415 0.256025,-0.37419 0.118167,-0.334802 0.216637,-0.315108 0.256024,-0.315108 0.315109,-0.393885 0.334801,-0.315106 0.275719,-0.334803 0.27572,-0.334803 0.157554,-0.315108 0.05908,-0.334801 v -0.315119 l -0.137851,-0.295413 -0.157554,-0.216636 -1.024101,-0.905936 -0.27572,-0.196943 -0.09848,-0.0197 z"
       id="path6996" />
    <path
       style="fill:#6f36ff;fill-opacity:1;stroke:#6f36ff;stroke-width:0.315108px;stroke-linecap:butt;stroke-linejoin:miter;stroke-opacity:1"
       d="m 75.447748,61.96201 -0.389927,0.208888 -0.459556,0.34815 -0.362074,0.30637 -0.348148,0.334222 -0.459557,0.459553 -0.389927,0.389927 -0.236741,0.30637 -0.16711,0.334221 -0.153183,0.473486 -0.153188,0.445628 -0.139259,0.431705 -0.111402,0.417775 -0.0557,0.348151 v 0.264592 l 1.114072,0.974814 0.376002,0.01393 0.389924,-0.06962 0.236741,-0.0557 0.445632,-0.153186 0.710221,-0.375999 0.65452,-0.501335 0.376,-0.445631 0.362074,-0.557036 0.250666,-0.529186 0.153185,-0.348149 0.06962,-0.236741 c 0,0 0.06962,-0.153183 0.08356,-0.250665 0.01393,-0.09748 0.06963,-0.584891 0.06963,-0.584891 l -0.06963,-0.47348 -0.125332,-0.445629 -0.181037,-0.306371 -0.306371,-0.334224 -0.445629,-0.348147 -0.417779,-0.09748 -0.167111,-0.01392 z"
       id="path6998" />
    <path
       style="fill:#6f36ff;fill-opacity:1;stroke:#6f36ff;stroke-width:0.315108px;stroke-linecap:butt;stroke-linejoin:miter;stroke-opacity:1"
       d="m 62.649027,59.203066 -0.708991,0.433273 -0.315109,0.393885 -0.393884,0.669604 -0.27572,0.630217 -0.118167,0.590826 -0.09846,0.433273 -0.0099,0.285567 -0.0197,0.216638 -0.0099,0.236331 0.0197,0.246177 v 0.20679 c 0,0 0,0.157554 0.0099,0.246178 0.0099,0.08861 0.06893,0.393885 0.06893,0.393885 0,0 0.04924,0.275718 0.04924,0.315107 0,0.03938 0.128013,0.374192 0.128013,0.374192 l 0.157554,0.26587 0.187095,0.265873 0.08862,0.177249 0.0197,0.167401 -0.09846,0.128012 -0.137861,0.118166 -0.187094,0.08862 -0.147706,0.108317 -0.187097,0.108319 -0.157554,0.128012 -0.06893,0.137859 -0.256026,0.315108 -0.120693,0.370041 -0.09051,0.271557 -0.04178,0.550074 -0.278522,0.584891 -0.167111,0.501334 -0.08356,0.389923 -0.02786,0.445631 v 0.334223 l 0.08356,0.334223 0.167113,0.222812 0.222815,0.194964 0.389927,0.08356 0.557036,-0.02786 0.306372,-0.111402 0.278518,0.02786 0.167111,0.08356 h 0.278519 l 0.278519,-0.08356 0.278518,-0.0557 0.278518,-0.111415 0.222816,-0.222813 0.139259,-0.222817 0.139258,-0.473481 0.167111,-0.668445 0.222816,-0.752 0.111402,-0.91911 0.194963,-0.501334 0.334222,-0.863408 0.194965,-0.72415 0.0557,-0.473481 0.0557,-0.445628 -0.08356,-0.41778 c 0,0 -0.194964,-0.278518 -0.194964,-0.417779 0,-0.139259 -0.08356,-0.362072 -0.08356,-0.473482 0,-0.111401 0.02786,-0.362074 0.02786,-0.362074 l 0.222815,-0.334222 c 0,0 0.08356,-0.111403 0.139259,-0.30637 0.0557,-0.194965 0.08356,-0.30637 0.08356,-0.473483 0,-0.16711 0,-0.250664 0,-0.389926 0,-0.139258 0.02786,-0.362074 0.02786,-0.501333 0,-0.139259 -0.08356,-0.807704 -0.08356,-0.807704 0,0 -0.02786,-0.334223 -0.08356,-0.445627 -0.0557,-0.111415 -0.27852,-0.389927 -0.27852,-0.389927 l -0.362075,-0.194964 -0.389924,-0.08356 -0.46652,0.04178 -0.139258,0.04178 z"
       id="path7000" />
    <path
       style="fill:#6f36ff;fill-opacity:1;stroke:#6f36ff;stroke-width:0.315108px;stroke-linecap:butt;stroke-linejoin:miter;stroke-opacity:1"
       d="m 63.708187,52.074595 -0.529184,0.222817 -0.334223,0.264592 -0.236741,0.264593 c 0,0 -0.264593,0.264594 -0.264593,0.334222 0,0.06962 -0.167111,0.348148 -0.167111,0.348148 l -0.125334,0.362074 c 0,0 -0.09748,0.320297 -0.09748,0.389927 0,0.06962 0.01393,0.278517 0,0.348148 -0.01391,0.06963 -0.04178,0.668443 -0.04178,0.668443 l -0.02786,0.376003 0.02786,0.543111 0.06962,0.403851 0.167111,0.459557 0.236741,0.264593 0.208888,0.111403 0.362075,0.09748 0.389927,0.06963 0.389926,0.0557 h 0.348148 l 0.348147,-0.02786 c 0,0 0.292445,-0.06962 0.348149,-0.09748 0.0557,-0.02786 0.306371,-0.16711 0.306371,-0.16711 l 0.320298,-0.264593 0.16711,-0.264593 c 0,0 0.153184,-0.236741 0.167112,-0.306371 0.01392,-0.06962 0.08356,-0.236739 0.09748,-0.334222 0.01393,-0.09748 0.02786,-0.250664 0.04178,-0.362075 0.01392,-0.111401 0.01392,-0.250665 0.02786,-0.362074 0.01392,-0.111403 0.01392,-0.181036 0.02786,-0.292443 0.01393,-0.111414 0.02786,-0.194963 0.02786,-0.27852 0,-0.08356 0.04178,-0.292446 0.04178,-0.362075 0,-0.06962 0.02786,-0.292441 0.01393,-0.375998 -0.01393,-0.08356 -0.06963,-0.208889 -0.06963,-0.278518 0,-0.06962 -0.04178,-0.125335 -0.08356,-0.292446 -0.04178,-0.167111 -0.09748,-0.264592 -0.125332,-0.320297 -0.02786,-0.0557 -0.0557,-0.09748 -0.09748,-0.181036 -0.04178,-0.08356 -0.09748,-0.167111 -0.153186,-0.222816 -0.0557,-0.0557 -0.139258,-0.09748 -0.194963,-0.153184 -0.0557,-0.0557 -0.13926,-0.09748 -0.208888,-0.153186 -0.06963,-0.0557 -0.01393,-0.01392 -0.167112,-0.125334 -0.153187,-0.111403 -0.264593,-0.139259 -0.264593,-0.139259 l -0.23674,-0.06962 c 0,0 -0.181036,-0.0557 -0.23674,-0.08356 -0.0557,-0.02786 -0.208889,-0.08356 -0.208889,-0.08356 z"
       id="path7002" />
    <path
       style="fill:#6f36ff;fill-opacity:1;stroke:#6f36ff;stroke-width:0.315108px;stroke-linecap:butt;stroke-linejoin:miter;stroke-opacity:1"
       d="m 53.444774,64.510453 -1.086221,0.250669 -0.362075,0.139258 -0.306373,0.30637 -0.0557,0.445629 -0.111414,0.529187 v 0.557037 l 0.222815,0.946962 0.278521,0.891261 c 0,0 0.111402,0.306369 0.139259,0.445629 0.02786,0.139261 0.194963,0.445631 0.278518,0.58489 0.08356,0.139258 0.111402,0.362076 0.222815,0.417776 0.111402,0.0557 0.167111,0.139262 0.501334,0.167112 0.334222,0.02786 0.584886,0.02786 0.584886,0.02786 0,0 0.306372,-0.08356 0.417782,-0.194963 0.111401,-0.111403 0.16711,-0.194962 0.362073,-0.306371 0.19496,-0.111402 0.389924,-0.278518 0.44563,-0.389925 0.0557,-0.111414 0.139257,-0.250667 0.222815,-0.362074 0.08356,-0.111414 0.194963,-0.250669 0.250664,-0.362074 0.0557,-0.111403 0.13926,-0.222817 0.194964,-0.362075 0.0557,-0.139258 0.139259,-0.222816 0.167112,-0.417776 0.02785,-0.194964 0.0557,-0.306373 0.111402,-0.41778 0.0557,-0.111402 0.0557,-0.194964 0.08356,-0.362074 0.02786,-0.167112 0.08356,-0.584889 0.08356,-0.696298 0,-0.111403 -0.08356,-0.529186 -0.08356,-0.529186 L 55.812173,65.31816 55.47795,64.900384 54.976618,64.677567 c 0,0 -0.334223,0 -0.501334,-0.0557 -0.167111,-0.0557 -0.72415,-0.08356 -0.72415,-0.08356 z"
       id="path7004" />
    <path
       style="fill:#6f36ff;fill-opacity:1;stroke:#6f36ff;stroke-width:0.315108px;stroke-linecap:butt;stroke-linejoin:miter;stroke-opacity:1"
       d="m 53.66759,50.166743 -0.334222,0.41778 -0.362074,0.445628 -0.222817,0.417779 -0.250664,0.640594 -0.222818,0.47348 -0.167109,0.473481 -0.02786,0.473482 v 0.306373 l 0.111414,0.473481 0.0557,0.445628 0.250669,0.640592 0.30637,0.58489 0.362073,0.334223 0.306372,0.362075 0.389927,0.16711 0.222811,0.389926 0.02786,0.306373 -0.362075,0.194959 -0.389924,0.111414 -0.389926,0.250667 -0.167113,0.222815 -0.08356,0.278518 -0.02786,0.306372 v 0.389924 c 0,0 -0.02786,0.278521 -0.02786,0.41778 0,0.139259 0.02786,0.640592 0.02786,0.640592 0,0 0.139258,0.250666 0.139258,0.362075 0,0.111403 0.16711,0.61274 0.16711,0.61274 0,0 0.222814,0.194963 0.250665,0.30637 0.02786,0.111414 0.612743,0.362075 0.612743,0.362075 l 0.529184,0.02786 h 0.41778 l 0.529185,-0.0557 0.30637,-0.306371 0.362075,-0.389924 0.334222,-0.584889 0.111403,-0.501334 c 0,0 0.02786,-0.389927 0.02786,-0.501334 0,-0.111402 0,-0.362074 0,-0.473481 0,-0.111414 0.02786,-0.47348 0.02786,-0.47348 l 0.167123,-0.389929 c 0,0 0.08356,-0.278518 0.111402,-0.417779 0.02785,-0.139258 0.08356,-0.222814 0.111414,-0.362075 0.02786,-0.13926 0.08356,-0.278518 0.111403,-0.445629 0.02785,-0.167111 0.02785,-0.445629 0.02785,-0.445629 0,0 -0.167112,-0.58489 -0.194963,-0.696297 -0.02786,-0.111402 -0.02786,-0.417779 -0.0557,-0.529185 -0.02786,-0.111402 -0.0557,-0.61274 -0.0557,-0.61274 0,0 0,-0.417779 0,-0.529187 0,-0.111413 0,-0.696296 0,-0.696296 l -0.167117,-0.47348 -0.194964,-1.002667 -0.250668,-0.863408 -0.362073,-0.612743 -0.473482,-0.334222 -0.584888,-0.167112 -0.557038,-0.08356 z"
       id="path7006" />
    <path
       style="fill:#6f36ff;fill-opacity:1;stroke:#6f36ff;stroke-width:0.315108px;stroke-linecap:butt;stroke-linejoin:miter;stroke-opacity:1"
       d="M 46.523588,69.85801 45.96655,69.635198 45.660179,69.38453 45.465216,69.133864 45.28418,68.911049 c 0,0 -0.09748,-0.139259 -0.139261,-0.194965 -0.04178,-0.0557 -0.02786,-0.08356 -0.125332,-0.208887 -0.09748,-0.125335 -0.111413,-0.181037 -0.167112,-0.236742 -0.0557,-0.0557 -0.153185,-0.167111 -0.153185,-0.167111 0,0 -0.06963,-0.09748 -0.111403,-0.181037 -0.04178,-0.08356 -0.08356,-0.125333 -0.111414,-0.222814 -0.02786,-0.09748 -0.0557,-0.125335 -0.139259,-0.362075 -0.08356,-0.23674 -0.09748,-0.250668 -0.125334,-0.362075 -0.02786,-0.111402 -0.02786,-0.04178 -0.0557,-0.250664 -0.02786,-0.208892 -0.02786,-0.208892 -0.02786,-0.362076 0,-0.153185 0,-0.20889 0,-0.320297 0,-0.111403 0.01392,-0.250665 0.04178,-0.362074 0.02786,-0.111403 0.111402,-0.236742 0.139259,-0.334222 0.02786,-0.09748 0.02786,-0.167112 0.125334,-0.292446 0.09748,-0.125332 0.167111,-0.153184 0.23674,-0.278518 0.06962,-0.125335 0.06962,-0.125335 0.167111,-0.222816 0.09748,-0.09748 0.02786,-0.111402 0.153187,-0.139258 0.125335,-0.02786 0.250665,-0.08356 0.250665,-0.08356 0,0 -0.12533,-0.0557 0.125334,-0.06963 0.250669,-0.01392 0.626669,0 0.626669,0 l 0.40385,0.01392 0.543111,0.139257 c 0,0 0.0557,0.04178 0.111414,0.06962 0.0557,0.02786 0.125332,0.09748 0.194961,0.167111 0.06962,0.06962 0.125334,0.06962 0.208892,0.167111 0.08356,0.09748 0.12533,0.111415 0.181035,0.222817 0.0557,0.111402 0.09748,0.181035 0.125335,0.250669 0.02786,0.06962 0.111402,0.320294 0.125334,0.389923 0.01392,0.06963 0.04178,0.139259 0.08356,0.292445 0.04178,0.153187 0.0557,0.264593 0.0557,0.320299 0,0.0557 0,0.181035 0.01391,0.278517 0.01392,0.09748 0.02786,0.222815 0.04178,0.292445 0.01392,0.06963 0.02786,0.181037 0.06963,0.278517 0.04178,0.09748 0.08356,0.139259 0.125335,0.236742 0.04178,0.09748 0.06962,0.181038 0.09748,0.23674 0.02786,0.0557 0.04178,0.04178 0.04178,0.111415 0,0.06963 0.02786,0.153182 0.02786,0.278517 0,0.125333 -0.01393,0.222816 0,0.306369 0.01392,0.08356 0.01392,0.08356 0.01392,0.208889 0,0.125333 -0.02786,0.264592 -0.04178,0.34815 -0.01392,0.08356 -0.01392,0.111401 -0.04178,0.194963 -0.02786,0.08356 -0.09748,0.250665 -0.139259,0.30637 -0.04178,0.0557 -0.04178,0.09748 -0.09748,0.139259 -0.0557,0.04178 -0.167112,0.06962 -0.222817,0.111402 -0.0557,0.04178 -0.01393,0.06962 -0.181036,0.125333 -0.167111,0.0557 -0.23674,0.06962 -0.375999,0.08356 -0.139259,0.01392 -0.27852,0.0557 -0.417779,0.0557 -0.139259,0 -0.417777,-0.02786 -0.417777,-0.02786 z"
       id="path7043" />
    <path
       style="fill:#6f36ff;fill-opacity:1;stroke:#6f36ff;stroke-width:0.315108px;stroke-linecap:butt;stroke-linejoin:miter;stroke-opacity:1"
       d="m 45.515038,63.161609 0.275719,-0.256026 0.27572,-0.295413 0.256024,-0.315108 0.196943,-0.393885 0.13786,-0.354496 0.03938,-0.27572 0.09848,-0.452966 v -0.512051 l -0.03938,-0.354497 -0.09848,-0.334802 -0.157555,-0.315108 -0.118167,-0.334801 -0.345405,-0.862211 -0.194964,-0.306369 -0.194964,-0.250669 -0.167111,-0.139259 -0.250665,-0.139259 -0.194963,-0.139259 -0.03913,-0.01793 -0.0197,-0.02214 -0.0025,-0.02092 -0.0013,-0.02215 0.0062,-0.01723 0.0086,-0.0197 0.02215,-0.02339 0.04062,-0.032 0.141553,-0.114476 0.05908,-0.108318 0.06894,-0.177249 0.108317,-0.315106 0.04924,-0.226485 0.0099,-0.177247 0.0099,-0.285567 -0.05908,-0.216637 -0.06894,-0.167401 -0.06893,-0.196942 -0.209186,-0.819242 -0.194963,-0.612743 -0.111414,-0.362076 -0.19496,-0.278518 -0.334223,-0.445629 -0.250667,-0.362074 -0.278518,-0.167111 -0.306371,-0.250668 -0.445632,-0.139259 -0.278517,-0.0557 -0.445628,-0.0557 -0.362075,0.02786 h -0.334222 l -0.278522,0.0557 -0.222812,0.139261 -0.208119,0.150212 -0.162476,0.157555 -0.123091,0.142784 -0.07879,0.147706 -0.05909,0.10832 c 0,0 -0.064,0.07386 -0.07878,0.128011 -0.01478,0.05416 -0.07386,0.187097 -0.0837,0.221559 -0.0099,0.03446 -0.02953,0.06893 -0.03447,0.118167 -0.0049,0.04924 -0.01478,0.113248 -0.0197,0.13786 -0.0048,0.02461 -0.142637,0.576045 -0.142637,0.576045 l 0.0197,0.196943 v 0.295413 l 0.03938,0.27572 0.03938,0.256025 0.03938,0.275719 0.07879,0.27572 0.03938,0.196941 0.137858,0.256026 0.236331,0.433273 0.256025,0.354497 0.256026,0.354496 0.157554,0.256026 0.157555,0.256025 0.118167,0.256024 0.0197,0.256026 -0.0197,0.256026 -0.0197,0.275718 c 0,0 -0.07879,0.177247 -0.09846,0.256025 -0.0197,0.07879 -0.07878,0.433274 -0.07878,0.433274 l 0.0197,0.354496 c 0,0 0,0.157553 0.0197,0.236331 0.0197,0.07879 0.07878,0.275718 0.07878,0.275718 l 0.162647,0.26842 0.181036,0.320297 0.153187,0.292446 0.208888,0.250665 0.181036,0.376002 0.194962,0.292443 0.236742,0.334222 0.167111,0.222817 0.181038,0.236739 0.320296,0.320299 0.376001,0.264591 c 0,0 0.208889,0.167113 0.264593,0.194964 0.0557,0.02786 0.417776,0.194961 0.417776,0.194961 l 0.417781,0.02786 0.208888,-0.06962 0.181034,-0.08356 z"
       id="path7065" />
    <path
       style="fill:#6f36ff;fill-opacity:1;stroke:#6f36ff;stroke-width:0.315108px;stroke-linecap:butt;stroke-linejoin:miter;stroke-opacity:1"
       d="m 41.649512,86.471646 0.02785,-0.389923 -0.02785,-0.389928 -0.09748,-0.264593 v -0.111401 c 0,0 0,-0.236741 0,-0.306371 0,-0.06963 -0.02785,-0.403855 -0.02785,-0.403855 0,0 -0.01392,-0.111401 0,-0.208888 0.01393,-0.09748 0.01393,-0.111401 0.02785,-0.250665 0.01393,-0.13926 0.06962,-0.222815 0.06962,-0.222815 0,0 0,-0.08356 0.01393,-0.222817 0.01391,-0.139258 0.04178,0.01392 0.01391,-0.236741 -0.02786,-0.250665 -0.04178,-0.292445 -0.04178,-0.292445 l -0.02786,-0.473481 c 0,0 0.01393,-0.01392 -0.02786,-0.208887 -0.04178,-0.194964 -0.04178,-0.250666 -0.0557,-0.376 -0.01393,-0.125335 -0.02786,-0.153186 -0.0557,-0.264593 -0.02786,-0.111415 -0.01393,-0.111415 -0.06962,-0.250669 -0.0557,-0.139259 -0.125334,-0.181035 -0.167111,-0.250664 -0.04178,-0.06962 -0.459556,-0.376 -0.459556,-0.376 l -0.153182,-0.08356 -0.125335,-0.06963 -0.125334,-0.111402 -0.194963,-0.167111 c 0,0 -0.04178,-0.139262 -0.06962,-0.194963 -0.02786,-0.0557 -0.08356,-0.139259 -0.111401,-0.222817 -0.02786,-0.08356 -0.111403,-0.334222 -0.111403,-0.334222 0,0 -0.09748,-0.181035 -0.139259,-0.23674 -0.04178,-0.0557 -0.139263,-0.153186 -0.139263,-0.153186 l -0.19496,-0.111403 -0.208891,-0.06962 c 0,0 -0.194964,-0.01393 -0.250665,-0.01393 -0.0557,0 -0.292446,-0.02786 -0.389928,-0.04178 -0.09748,-0.01392 -0.459556,-0.02786 -0.459556,-0.02786 l -0.807703,0.02786 h -0.38995 l -0.348148,0.04178 c 0,0 -0.153186,0.06962 -0.208889,0.09748 -0.0557,0.02786 -0.111413,0.06963 -0.16711,0.09748 -0.0557,0.02786 -0.181039,0.125335 -0.181039,0.125335 l -0.181036,0.16711 -0.125334,0.153187 -0.139259,0.153184 v 0.125334 l 0.0557,0.153186 0.06963,0.153184 0.111403,0.292445 0.125334,0.292445 c 0,0 0.125334,0.236741 0.125334,0.292446 0,0.0557 0.139259,0.417775 0.139259,0.417775 0,0 0.181035,0.236741 0.194963,0.292446 0.01392,0.0557 0.264589,0.278518 0.264589,0.278518 l 0.208893,0.139259 0.23674,0.181038 0.222816,0.06962 0.278516,0.04178 h 0.222817 l 0.264589,0.01393 0.194965,0.02786 0.194962,0.04178 0.208888,0.06962 0.194965,0.08356 0.194963,0.153188 0.139258,0.167111 0.09748,0.194962 0.06962,0.153184 c 0,0 0.111414,0.222816 0.125335,0.292445 0.01392,0.06962 0.06963,0.208888 0.08356,0.278518 0.01391,0.06962 0.04178,0.222817 0.04178,0.222817 0,0 0.04178,0.153185 0.0557,0.208887 0.01393,0.0557 0.0557,0.250669 0.0557,0.250669 0,0 0.0557,0.16711 0.06962,0.222812 0.01393,0.0557 0.04178,0.139261 0.08356,0.264594 0.04178,0.125333 0.181035,0.292444 0.181035,0.292444 l 0.222816,0.334222 0.194964,0.292446 0.278519,0.250665 0.194962,0.111415 0.194965,0.0557 0.153182,0.04178 0.208891,0.01392 0.111403,-0.08356 0.04178,-0.09748 z"
       id="path7067" />
    <path
       style="fill:#6f36ff;fill-opacity:1;stroke:#6f36ff;stroke-width:0.315108px;stroke-linecap:butt;stroke-linejoin:miter;stroke-opacity:1"
       d="m 31.807845,72.280042 -1.181654,0.118168 -0.866547,0.118166 -0.74838,0.354496 -0.472663,0.315108 -0.393885,0.354498 -0.118168,0.354495 -0.157554,0.51205 0.236332,0.669604 0.286694,0.463168 0.292446,0.334222 0.306369,0.348146 0.320299,0.334222 0.626667,0.515262 0.654516,0.431705 0.682374,0.334223 0.557034,0.250664 0.570964,0.250669 0.835555,0.208887 0.765927,0.08356 1.169777,0.08356 0.863409,-0.111403 0.362073,-0.139261 0.389928,-0.19496 0.167111,-0.250669 0.139259,-0.222815 v -0.30637 l -0.02786,-0.334223 -0.08356,-0.389927 -0.0557,-0.362071 c 0,0 -0.0557,-0.111415 -0.08356,-0.27852 -0.02786,-0.167112 -0.08356,-0.250667 -0.139262,-0.389926 -0.0557,-0.139261 -0.08356,-0.278519 -0.167111,-0.417779 -0.08356,-0.139257 -0.08356,-0.167111 -0.167111,-0.278516 -0.08356,-0.111415 -0.111402,-0.08356 -0.19496,-0.250669 -0.08356,-0.167112 -0.167112,-0.222814 -0.250668,-0.389924 -0.08356,-0.167115 -0.543604,-0.59152 -0.543604,-0.59152 L 35.096788,73.57986 c 0,0 -0.265873,-0.187095 -0.315107,-0.226484 -0.04924,-0.03938 -0.147709,-0.08862 -0.236333,-0.157553 -0.08861,-0.06894 -0.256024,-0.157554 -0.324954,-0.20679 -0.06894,-0.04924 -0.08861,-0.05909 -0.226483,-0.108318 -0.13786,-0.04924 -0.285567,-0.108318 -0.334803,-0.128012 -0.04924,-0.0197 -0.236331,-0.108318 -0.285566,-0.108318 -0.04924,0 -0.344649,-0.108318 -0.384038,-0.118167 -0.03938,-0.0099 -0.384037,-0.108318 -0.384037,-0.108318 l -0.603137,-0.145245 -0.08862,-0.0074 z"
       id="path7069" />
  </g>
</svg>
